<svg xmlns="http://www.w3.org/2000/svg" fill="none" viewBox="0.06 0.81 179.56 30.92">
   <circle cx="15.5564" cy="16.2344" r="15.3632" fill="url(#paint0_linear_66_871)"></circle>
   <circle cx="15.5564" cy="16.2344" r="15.3632" fill="url(#paint1_linear_66_871)"
      fill-opacity="0.29" style="mix-blend-mode: multiply;"></circle>
   <mask id="mask0_66_871" maskUnits="userSpaceOnUse" x="0" y="0" width="31" height="32"
      style="mask-type: alpha;">
      <circle cx="15.5243" cy="16.2666" r="15.4598" fill="#D9D9D9"></circle>
   </mask>
   <g mask="url(#mask0_66_871)">
      <path fill-rule="evenodd" clip-rule="evenodd"
         d="M17.9844 13.3485C14.4585 12.6004 11.6508 9.90842 10.736 6.44717C10.6188 6.00377 11.1123 5.6988 11.4849 5.96623L25.3463 15.9158C25.5169 16.0383 25.5963 16.2506 25.5589 16.4573C25.4695 16.9503 25.4228 17.4582 25.4228 17.977C25.4228 18.6235 25.4953 19.253 25.6326 19.858C25.6802 20.0677 25.607 20.2909 25.4251 20.4056C24.7246 20.8472 23.8928 21.1031 23.0006 21.1031C22.2595 21.1031 21.5601 20.9265 20.943 20.6136C20.7674 20.5246 20.5675 20.4899 20.3755 20.5331C20.0245 20.6121 19.7751 20.9239 19.7751 21.2837V27.2409C19.7751 27.5301 19.5406 27.7646 19.2514 27.7646H18.5106C18.2288 27.7646 18.0009 27.5406 17.9583 27.262C17.6395 25.1822 15.8495 23.5895 13.6891 23.5895C13.5463 23.5895 13.4051 23.5965 13.2659 23.6101C13.114 23.6249 13.0033 23.7561 13.0033 23.9087C13.0033 24.0749 13.1346 24.2102 13.2994 24.2309C15.1028 24.4579 16.4976 25.9971 16.4976 27.862C16.4976 28.0993 16.475 28.3313 16.4319 28.5561C16.3784 28.8346 16.5766 29.1182 16.8602 29.1182H17.2586C17.2641 29.1182 17.2685 29.1227 17.2685 29.1282C17.2685 29.1337 17.273 29.1382 17.2785 29.1382H20.268C20.4112 29.1382 20.5491 29.1959 20.6452 29.302C20.7029 29.3656 20.7586 29.4303 20.8107 29.4968C21.0544 29.8081 21.0647 30.3011 21.0647 31.072C21.0647 31.296 20.9766 31.5117 20.8136 31.7138C20.7283 31.8196 20.5944 31.8697 20.4586 31.8697H11.2646C11.1209 31.8697 10.9829 31.8111 10.8865 31.7045C10.7631 31.5681 10.6436 31.4281 10.5281 31.2847C10.2823 30.9796 9.76863 31.0013 9.43801 31.2115C9.17186 31.3808 8.85599 31.4788 8.51722 31.4788C7.56818 31.4788 6.79882 30.7094 6.79882 29.7604C6.79882 28.8113 7.56818 28.042 8.51722 28.042C8.65728 28.042 8.7739 27.9096 8.73726 27.7744C8.51873 26.9681 8.40209 26.1195 8.40209 25.2435C8.40209 19.9379 12.6812 15.6368 17.9597 15.6368C18.3241 15.6368 18.645 15.3926 18.7753 15.0523L18.7859 15.025C19.0312 14.3973 18.6436 13.4883 17.9844 13.3485ZM6.89207 13.9348C6.53672 13.9348 6.37635 14.3564 6.66366 14.5655C7.93282 15.4892 9.49538 16.0341 11.1852 16.0341C12.8751 16.0341 14.4376 15.4892 15.7068 14.5655C15.9941 14.3564 15.8337 13.9348 15.4784 13.9348H6.89207ZM22.365 17.9687C22.8242 17.9687 23.1964 17.5965 23.1964 17.1373C23.1964 16.6782 22.8242 16.3059 22.365 16.3059C21.9059 16.3059 21.5336 16.6782 21.5336 17.1373C21.5336 17.5965 21.9059 17.9687 22.365 17.9687Z"
         fill="white"></path>
   </g>
   <path
      d="M48.7269 19.158V26.2167H45.29V7.34053H53.3798C55.6182 7.34053 57.3454 7.85165 58.5615 8.87389C59.7777 9.89613 60.3857 11.359 60.3857 13.2625C60.3857 14.5667 60.0244 15.6859 59.3018 16.62C58.5968 17.5541 57.6186 18.2239 56.3672 18.6292L61.0995 26.2167H57.2661L52.9568 19.158H48.7269ZM48.7269 10.1164V16.4085H52.9833C54.2875 16.4085 55.2657 16.1441 55.9178 15.6154C56.5876 15.0866 56.9224 14.3023 56.9224 13.2625C56.9224 12.2226 56.5876 11.4383 55.9178 10.9096C55.2657 10.3808 54.2875 10.1164 52.9833 10.1164H48.7269Z"
      fill="#f1d4ff"></path>
   <path
      d="M74.6085 26.2167H71.3568C71.3039 25.8642 71.2598 25.5117 71.2246 25.1592C71.1893 24.8067 71.1717 24.4542 71.1717 24.1018C70.8544 24.8596 70.2993 25.4501 69.5061 25.873C68.7307 26.296 67.7965 26.5075 66.7038 26.5075C65.3467 26.5075 64.2539 26.155 63.4256 25.4501C62.5972 24.7451 62.183 23.8021 62.183 22.6213C62.183 21.4404 62.5884 20.5063 63.3991 19.8189C64.2099 19.1315 65.4172 18.6909 67.021 18.4971L71.0395 18.0476V17.4131C71.0395 16.6376 70.8192 16.0384 70.3786 15.6154C69.938 15.1924 69.3123 14.9809 68.5015 14.9809C67.7789 14.9809 67.1973 15.166 66.7567 15.5361C66.3161 15.9062 66.0693 16.4085 66.0164 17.043H62.7647C62.9056 15.6154 63.4961 14.4962 64.5359 13.6855C65.5758 12.8747 66.9329 12.4694 68.6073 12.4694C70.4755 12.4694 71.8943 12.91 72.8637 13.7912C73.8507 14.6725 74.3442 15.9679 74.3442 17.6775V22.8592C74.3442 23.5818 74.3618 24.2075 74.397 24.7362C74.4499 25.2474 74.5204 25.7409 74.6085 26.2167ZM65.5406 22.4362C65.5406 22.9826 65.7256 23.4056 66.0957 23.7052C66.4659 24.0048 66.977 24.1546 67.6291 24.1546C68.6161 24.1546 69.4268 23.8726 70.0613 23.3086C70.7134 22.727 71.0395 21.9603 71.0395 21.0086V20.189L68.0521 20.5327C67.1004 20.6561 66.4394 20.8676 66.0693 21.1672C65.7168 21.4492 65.5406 21.8722 65.5406 22.4362Z"
      fill="#f1d4ff"></path>
   <path
      d="M85.1892 26.534C84.2375 26.534 83.3651 26.3137 82.5719 25.873C81.7964 25.4148 81.2324 24.8156 80.88 24.0753V26.2167H77.5489V6.75891H80.9328V14.9809C81.2853 14.223 81.8405 13.615 82.5984 13.1567C83.3739 12.6985 84.2375 12.4694 85.1892 12.4694C86.9517 12.4694 88.3793 13.1215 89.4721 14.4257C90.5648 15.73 91.1112 17.4219 91.1112 19.5017C91.1112 21.5814 90.5648 23.2734 89.4721 24.5776C88.3793 25.8819 86.9517 26.534 85.1892 26.534ZM84.2375 14.9545C83.18 14.9545 82.3516 15.3422 81.7524 16.1177C81.1531 16.8756 80.8535 17.9242 80.8535 19.2637V19.7396C80.8535 21.0791 81.1531 22.1366 81.7524 22.9121C82.3516 23.6699 83.18 24.0489 84.2375 24.0489C85.3126 24.0489 86.1586 23.6435 86.7755 22.8328C87.3923 22.022 87.7008 20.9117 87.7008 19.5017C87.7008 18.0917 87.3923 16.9813 86.7755 16.1706C86.1586 15.3598 85.3126 14.9545 84.2375 14.9545Z"
      fill="#f1d4ff"></path>
   <path
      d="M101.152 26.534C100.2 26.534 99.3276 26.3137 98.5345 25.873C97.759 25.4148 97.195 24.8156 96.8425 24.0753V26.2167H93.5114V6.75891H96.8954V14.9809C97.2478 14.223 97.803 13.615 98.5609 13.1567C99.3364 12.6985 100.2 12.4694 101.152 12.4694C102.914 12.4694 104.342 13.1215 105.435 14.4257C106.527 15.73 107.074 17.4219 107.074 19.5017C107.074 21.5814 106.527 23.2734 105.435 24.5776C104.342 25.8819 102.914 26.534 101.152 26.534ZM100.2 14.9545C99.1425 14.9545 98.3141 15.3422 97.7149 16.1177C97.1157 16.8756 96.816 17.9242 96.816 19.2637V19.7396C96.816 21.0791 97.1157 22.1366 97.7149 22.9121C98.3141 23.6699 99.1425 24.0489 100.2 24.0489C101.275 24.0489 102.121 23.6435 102.738 22.8328C103.355 22.022 103.663 20.9117 103.663 19.5017C103.663 18.0917 103.355 16.9813 102.738 16.1706C102.121 15.3598 101.275 14.9545 100.2 14.9545Z"
      fill="#f1d4ff"></path>
   <path
      d="M112.964 10.513H109.368V7.20835H112.964V10.513ZM112.858 26.2167H109.474V12.7866H112.858V26.2167Z"
      fill="#f1d4ff"></path>
   <path
      d="M121.534 23.7052C121.834 23.7052 122.124 23.6876 122.406 23.6523C122.688 23.5994 122.988 23.5289 123.305 23.4408V26.0317C122.847 26.1727 122.406 26.2696 121.983 26.3225C121.56 26.393 121.111 26.4282 120.635 26.4282C119.208 26.4282 118.15 26.111 117.463 25.4765C116.793 24.842 116.458 23.8638 116.458 22.542V15.2188H114.607V12.7866H116.458V9.42907H119.816V12.7866H123.015V15.2188H119.789V22.0132C119.789 22.5948 119.921 23.0266 120.186 23.3086C120.468 23.573 120.917 23.7052 121.534 23.7052Z"
      fill="#f1d4ff"></path>
   <path
      d="M129.271 26.2167H125.755V7.34053H129.271V15.2717H138.948V7.34053H142.437V26.2167H138.948V18.0212H129.271V26.2167Z"
      fill="#ffffff"></path>
   <path
      d="M151.716 12.4694C153.743 12.4694 155.382 13.1127 156.633 14.3993C157.885 15.6859 158.51 17.3867 158.51 19.5017C158.51 21.6343 157.885 23.3439 156.633 24.6305C155.399 25.8995 153.76 26.534 151.716 26.534C149.671 26.534 148.023 25.8995 146.772 24.6305C145.538 23.3439 144.922 21.6343 144.922 19.5017C144.922 17.3867 145.547 15.6859 146.799 14.3993C148.05 13.1127 149.689 12.4694 151.716 12.4694ZM151.716 14.9809C150.641 14.9809 149.804 15.3775 149.204 16.1706C148.605 16.9637 148.305 18.0741 148.305 19.5017C148.305 20.9293 148.605 22.0396 149.204 22.8328C149.804 23.6259 150.641 24.0224 151.716 24.0224C152.791 24.0224 153.628 23.6259 154.227 22.8328C154.827 22.0396 155.126 20.9293 155.126 19.5017C155.126 18.0917 154.827 16.9901 154.227 16.197C153.628 15.3863 152.791 14.9809 151.716 14.9809Z"
      fill="#ffffff"></path>
   <path d="M164.29 6.75891V26.2167H160.906V6.75891H164.29Z" fill="#ffffff"></path>
   <path
      d="M176.429 22.0396H179.549C179.267 23.432 178.579 24.5336 177.487 25.3443C176.412 26.1374 175.081 26.534 173.495 26.534C171.468 26.534 169.829 25.8995 168.577 24.6305C167.326 23.3439 166.7 21.6431 166.7 19.5281C166.7 17.4131 167.326 15.7123 168.577 14.4257C169.829 13.1215 171.441 12.4694 173.415 12.4694C175.319 12.4694 176.826 13.095 177.936 14.3464C179.064 15.5978 179.628 17.2281 179.628 19.2373V20.3212H169.978C170.084 21.5197 170.437 22.445 171.036 23.0971C171.635 23.7316 172.455 24.0489 173.495 24.0489C174.235 24.0489 174.852 23.8814 175.345 23.5466C175.839 23.2117 176.2 22.7094 176.429 22.0396ZM173.415 14.9809C172.516 14.9809 171.776 15.2541 171.195 15.8005C170.631 16.3292 170.26 17.1047 170.084 18.1269H176.403C176.403 17.1928 176.13 16.4349 175.583 15.8533C175.054 15.2717 174.332 14.9809 173.415 14.9809Z"
      fill="#ffffff"></path>
   <defs>
      <linearGradient id="paint0_linear_66_871" x1="3.14647" y1="4.23155" x2="24.1883" y2="29.8263"
         gradientUnits="userSpaceOnUse">
         <stop stop-color="#AF7EFF"></stop>
         <stop offset="1" stop-color="#8044FF"></stop>
      </linearGradient>
      <linearGradient id="paint1_linear_66_871" x1="15.5564" y1="0.871156" x2="15.5564" y2="31.5976"
         gradientUnits="userSpaceOnUse">
         <stop stop-opacity="0"></stop>
         <stop offset="1" stop-color="#0F0E31"></stop>
      </linearGradient>
   </defs>
</svg>