<svg width="31" height="32" viewBox="0 0 31 32" fill="none" xmlns="http://www.w3.org/2000/svg">
   <circle cx="15.5564" cy="16.2344" r="15.3632" fill="url(#paint0_linear_181_5781)"></circle>
   <circle cx="15.5564" cy="16.2344" r="15.3632" fill="url(#paint1_linear_181_5781)"
      fill-opacity="0.29" style="mix-blend-mode: multiply;"></circle>
   <mask id="mask0_181_5781" maskUnits="userSpaceOnUse" x="0" y="0" width="31" height="32"
      style="mask-type: alpha;">
      <circle cx="15.5242" cy="16.2666" r="15.4598" fill="#D9D9D9"></circle>
   </mask>
   <g mask="url(#mask0_181_5781)">
      <path fill-rule="evenodd" clip-rule="evenodd"
         d="M17.9844 13.3485C14.4585 12.6004 11.6508 9.90842 10.736 6.44717C10.6188 6.00377 11.1123 5.6988 11.4849 5.96623L25.3463 15.9158C25.5169 16.0383 25.5963 16.2506 25.5589 16.4573C25.4695 16.9503 25.4228 17.4582 25.4228 17.977C25.4228 18.6235 25.4953 19.253 25.6326 19.858C25.6802 20.0677 25.607 20.2909 25.4251 20.4056C24.7246 20.8472 23.8928 21.1031 23.0006 21.1031C22.2595 21.1031 21.5601 20.9265 20.943 20.6136C20.7674 20.5246 20.5675 20.4899 20.3755 20.5331C20.0245 20.6121 19.7751 20.9239 19.7751 21.2837V27.2409C19.7751 27.5301 19.5406 27.7646 19.2514 27.7646H18.5106C18.2288 27.7646 18.0009 27.5406 17.9583 27.262C17.6395 25.1822 15.8495 23.5895 13.6891 23.5895C13.5463 23.5895 13.4051 23.5965 13.2659 23.6101C13.114 23.6249 13.0033 23.7561 13.0033 23.9087C13.0033 24.0749 13.1346 24.2102 13.2994 24.2309C15.1028 24.4579 16.4976 25.9971 16.4976 27.862C16.4976 28.0993 16.475 28.3313 16.4319 28.5561C16.3784 28.8346 16.5766 29.1182 16.8602 29.1182H17.2586C17.2641 29.1182 17.2685 29.1227 17.2685 29.1282C17.2685 29.1337 17.273 29.1382 17.2785 29.1382H20.268C20.4112 29.1382 20.5491 29.1959 20.6452 29.302C20.7029 29.3656 20.7586 29.4303 20.8107 29.4968C21.0544 29.8081 21.0647 30.3011 21.0647 31.072C21.0647 31.296 20.9766 31.5117 20.8136 31.7138C20.7283 31.8196 20.5944 31.8697 20.4586 31.8697H11.2646C11.1209 31.8697 10.9829 31.8111 10.8865 31.7045C10.7631 31.5681 10.6436 31.4281 10.5281 31.2847C10.2823 30.9796 9.76863 31.0013 9.43801 31.2115C9.17186 31.3808 8.85599 31.4788 8.51722 31.4788C7.56818 31.4788 6.79882 30.7094 6.79882 29.7604C6.79882 28.8113 7.56818 28.042 8.51722 28.042C8.65728 28.042 8.7739 27.9096 8.73726 27.7744C8.51873 26.9681 8.40209 26.1195 8.40209 25.2435C8.40209 19.9379 12.6812 15.6368 17.9597 15.6368C18.3241 15.6368 18.645 15.3926 18.7753 15.0523L18.7859 15.025C19.0312 14.3973 18.6436 13.4883 17.9844 13.3485ZM6.89207 13.9348C6.53672 13.9348 6.37635 14.3564 6.66366 14.5655C7.93282 15.4892 9.49538 16.0341 11.1852 16.0341C12.8751 16.0341 14.4376 15.4892 15.7068 14.5655C15.9941 14.3564 15.8337 13.9348 15.4784 13.9348H6.89207ZM22.365 17.9687C22.8242 17.9687 23.1964 17.5965 23.1964 17.1373C23.1964 16.6782 22.8242 16.3059 22.365 16.3059C21.9059 16.3059 21.5336 16.6782 21.5336 17.1373C21.5336 17.5965 21.9059 17.9687 22.365 17.9687Z"
         fill="white"></path>
   </g>
   <defs>
      <linearGradient id="paint0_linear_181_5781" x1="3.14647" y1="4.23161" x2="24.1883"
         y2="29.8263" gradientUnits="userSpaceOnUse">
         <stop stop-color="#AF7EFF"></stop>
         <stop offset="1" stop-color="#8044FF"></stop>
      </linearGradient>
      <linearGradient id="paint1_linear_181_5781" x1="15.5564" y1="0.871217" x2="15.5564"
         y2="31.5976" gradientUnits="userSpaceOnUse">
         <stop stop-opacity="0"></stop>
         <stop offset="1" stop-color="#0F0E31"></stop>
      </linearGradient>
   </defs>
</svg>